%TF.GenerationSoftware,KiCad,Pcbnew,(5.1.7)-1*%
%TF.CreationDate,2021-02-21T14:58:14-08:00*%
%TF.ProjectId,swd-connection,7377642d-636f-46e6-9e65-6374696f6e2e,A*%
%TF.SameCoordinates,Original*%
%TF.FileFunction,Soldermask,Top*%
%TF.FilePolarity,Negative*%
%FSLAX46Y46*%
G04 Gerber Fmt 4.6, Leading zero omitted, Abs format (unit mm)*
G04 Created by KiCad (PCBNEW (5.1.7)-1) date 2021-02-21 14:58:14*
%MOMM*%
%LPD*%
G01*
G04 APERTURE LIST*
%ADD10C,1.524000*%
%ADD11C,3.556000*%
%ADD12C,1.000000*%
G04 APERTURE END LIST*
D10*
%TO.C,J6*%
X38100000Y-73660000D03*
%TD*%
%TO.C,R1*%
G36*
G01*
X27411000Y-64307000D02*
X27961000Y-64307000D01*
G75*
G02*
X28161000Y-64507000I0J-200000D01*
G01*
X28161000Y-64907000D01*
G75*
G02*
X27961000Y-65107000I-200000J0D01*
G01*
X27411000Y-65107000D01*
G75*
G02*
X27211000Y-64907000I0J200000D01*
G01*
X27211000Y-64507000D01*
G75*
G02*
X27411000Y-64307000I200000J0D01*
G01*
G37*
G36*
G01*
X27411000Y-65957000D02*
X27961000Y-65957000D01*
G75*
G02*
X28161000Y-66157000I0J-200000D01*
G01*
X28161000Y-66557000D01*
G75*
G02*
X27961000Y-66757000I-200000J0D01*
G01*
X27411000Y-66757000D01*
G75*
G02*
X27211000Y-66557000I0J200000D01*
G01*
X27211000Y-66157000D01*
G75*
G02*
X27411000Y-65957000I200000J0D01*
G01*
G37*
%TD*%
%TO.C,C2*%
G36*
G01*
X47823000Y-66290000D02*
X47823000Y-65790000D01*
G75*
G02*
X48048000Y-65565000I225000J0D01*
G01*
X48498000Y-65565000D01*
G75*
G02*
X48723000Y-65790000I0J-225000D01*
G01*
X48723000Y-66290000D01*
G75*
G02*
X48498000Y-66515000I-225000J0D01*
G01*
X48048000Y-66515000D01*
G75*
G02*
X47823000Y-66290000I0J225000D01*
G01*
G37*
G36*
G01*
X46273000Y-66290000D02*
X46273000Y-65790000D01*
G75*
G02*
X46498000Y-65565000I225000J0D01*
G01*
X46948000Y-65565000D01*
G75*
G02*
X47173000Y-65790000I0J-225000D01*
G01*
X47173000Y-66290000D01*
G75*
G02*
X46948000Y-66515000I-225000J0D01*
G01*
X46498000Y-66515000D01*
G75*
G02*
X46273000Y-66290000I0J225000D01*
G01*
G37*
%TD*%
%TO.C,C1*%
G36*
G01*
X29927000Y-68330000D02*
X29927000Y-68830000D01*
G75*
G02*
X29702000Y-69055000I-225000J0D01*
G01*
X29252000Y-69055000D01*
G75*
G02*
X29027000Y-68830000I0J225000D01*
G01*
X29027000Y-68330000D01*
G75*
G02*
X29252000Y-68105000I225000J0D01*
G01*
X29702000Y-68105000D01*
G75*
G02*
X29927000Y-68330000I0J-225000D01*
G01*
G37*
G36*
G01*
X28377000Y-68330000D02*
X28377000Y-68830000D01*
G75*
G02*
X28152000Y-69055000I-225000J0D01*
G01*
X27702000Y-69055000D01*
G75*
G02*
X27477000Y-68830000I0J225000D01*
G01*
X27477000Y-68330000D01*
G75*
G02*
X27702000Y-68105000I225000J0D01*
G01*
X28152000Y-68105000D01*
G75*
G02*
X28377000Y-68330000I0J-225000D01*
G01*
G37*
%TD*%
%TO.C,R3*%
G36*
G01*
X48723000Y-67797000D02*
X48723000Y-68347000D01*
G75*
G02*
X48523000Y-68547000I-200000J0D01*
G01*
X48123000Y-68547000D01*
G75*
G02*
X47923000Y-68347000I0J200000D01*
G01*
X47923000Y-67797000D01*
G75*
G02*
X48123000Y-67597000I200000J0D01*
G01*
X48523000Y-67597000D01*
G75*
G02*
X48723000Y-67797000I0J-200000D01*
G01*
G37*
G36*
G01*
X47073000Y-67797000D02*
X47073000Y-68347000D01*
G75*
G02*
X46873000Y-68547000I-200000J0D01*
G01*
X46473000Y-68547000D01*
G75*
G02*
X46273000Y-68347000I0J200000D01*
G01*
X46273000Y-67797000D01*
G75*
G02*
X46473000Y-67597000I200000J0D01*
G01*
X46873000Y-67597000D01*
G75*
G02*
X47073000Y-67797000I0J-200000D01*
G01*
G37*
%TD*%
%TO.C,R2*%
G36*
G01*
X29993000Y-65107000D02*
X29443000Y-65107000D01*
G75*
G02*
X29243000Y-64907000I0J200000D01*
G01*
X29243000Y-64507000D01*
G75*
G02*
X29443000Y-64307000I200000J0D01*
G01*
X29993000Y-64307000D01*
G75*
G02*
X30193000Y-64507000I0J-200000D01*
G01*
X30193000Y-64907000D01*
G75*
G02*
X29993000Y-65107000I-200000J0D01*
G01*
G37*
G36*
G01*
X29993000Y-66757000D02*
X29443000Y-66757000D01*
G75*
G02*
X29243000Y-66557000I0J200000D01*
G01*
X29243000Y-66157000D01*
G75*
G02*
X29443000Y-65957000I200000J0D01*
G01*
X29993000Y-65957000D01*
G75*
G02*
X30193000Y-66157000I0J-200000D01*
G01*
X30193000Y-66557000D01*
G75*
G02*
X29993000Y-66757000I-200000J0D01*
G01*
G37*
%TD*%
D11*
%TO.C,H3*%
X47625000Y-60325000D03*
%TD*%
D10*
%TO.C,J1*%
X42164000Y-73660000D03*
%TD*%
%TO.C,J3*%
X42164000Y-59690000D03*
%TD*%
%TO.C,J4*%
X38100000Y-59690000D03*
%TD*%
%TO.C,J5*%
X34036000Y-73660000D03*
%TD*%
D11*
%TO.C,H1*%
X28575000Y-73025000D03*
%TD*%
%TO.C,H4*%
X47625000Y-73025000D03*
%TD*%
%TO.C,H2*%
X28575000Y-60325000D03*
%TD*%
%TO.C,J1*%
G36*
G01*
X35129200Y-65825000D02*
X35129200Y-63225000D01*
G75*
G02*
X35180000Y-63174200I50800J0D01*
G01*
X35940000Y-63174200D01*
G75*
G02*
X35990800Y-63225000I0J-50800D01*
G01*
X35990800Y-65825000D01*
G75*
G02*
X35940000Y-65875800I-50800J0D01*
G01*
X35180000Y-65875800D01*
G75*
G02*
X35129200Y-65825000I0J50800D01*
G01*
G37*
G36*
G01*
X36399200Y-65825000D02*
X36399200Y-63225000D01*
G75*
G02*
X36450000Y-63174200I50800J0D01*
G01*
X37210000Y-63174200D01*
G75*
G02*
X37260800Y-63225000I0J-50800D01*
G01*
X37260800Y-65825000D01*
G75*
G02*
X37210000Y-65875800I-50800J0D01*
G01*
X36450000Y-65875800D01*
G75*
G02*
X36399200Y-65825000I0J50800D01*
G01*
G37*
G36*
G01*
X37669200Y-65825000D02*
X37669200Y-63225000D01*
G75*
G02*
X37720000Y-63174200I50800J0D01*
G01*
X38480000Y-63174200D01*
G75*
G02*
X38530800Y-63225000I0J-50800D01*
G01*
X38530800Y-65825000D01*
G75*
G02*
X38480000Y-65875800I-50800J0D01*
G01*
X37720000Y-65875800D01*
G75*
G02*
X37669200Y-65825000I0J50800D01*
G01*
G37*
G36*
G01*
X38939200Y-65825000D02*
X38939200Y-63225000D01*
G75*
G02*
X38990000Y-63174200I50800J0D01*
G01*
X39750000Y-63174200D01*
G75*
G02*
X39800800Y-63225000I0J-50800D01*
G01*
X39800800Y-65825000D01*
G75*
G02*
X39750000Y-65875800I-50800J0D01*
G01*
X38990000Y-65875800D01*
G75*
G02*
X38939200Y-65825000I0J50800D01*
G01*
G37*
G36*
G01*
X40209200Y-65825000D02*
X40209200Y-63225000D01*
G75*
G02*
X40260000Y-63174200I50800J0D01*
G01*
X41020000Y-63174200D01*
G75*
G02*
X41070800Y-63225000I0J-50800D01*
G01*
X41070800Y-65825000D01*
G75*
G02*
X41020000Y-65875800I-50800J0D01*
G01*
X40260000Y-65875800D01*
G75*
G02*
X40209200Y-65825000I0J50800D01*
G01*
G37*
G36*
G01*
X35129200Y-70125000D02*
X35129200Y-67525000D01*
G75*
G02*
X35180000Y-67474200I50800J0D01*
G01*
X35940000Y-67474200D01*
G75*
G02*
X35990800Y-67525000I0J-50800D01*
G01*
X35990800Y-70125000D01*
G75*
G02*
X35940000Y-70175800I-50800J0D01*
G01*
X35180000Y-70175800D01*
G75*
G02*
X35129200Y-70125000I0J50800D01*
G01*
G37*
G36*
G01*
X36399200Y-70125000D02*
X36399200Y-67525000D01*
G75*
G02*
X36450000Y-67474200I50800J0D01*
G01*
X37210000Y-67474200D01*
G75*
G02*
X37260800Y-67525000I0J-50800D01*
G01*
X37260800Y-70125000D01*
G75*
G02*
X37210000Y-70175800I-50800J0D01*
G01*
X36450000Y-70175800D01*
G75*
G02*
X36399200Y-70125000I0J50800D01*
G01*
G37*
G36*
G01*
X37669200Y-70125000D02*
X37669200Y-67525000D01*
G75*
G02*
X37720000Y-67474200I50800J0D01*
G01*
X38480000Y-67474200D01*
G75*
G02*
X38530800Y-67525000I0J-50800D01*
G01*
X38530800Y-70125000D01*
G75*
G02*
X38480000Y-70175800I-50800J0D01*
G01*
X37720000Y-70175800D01*
G75*
G02*
X37669200Y-70125000I0J50800D01*
G01*
G37*
G36*
G01*
X38939200Y-70125000D02*
X38939200Y-67525000D01*
G75*
G02*
X38990000Y-67474200I50800J0D01*
G01*
X39750000Y-67474200D01*
G75*
G02*
X39800800Y-67525000I0J-50800D01*
G01*
X39800800Y-70125000D01*
G75*
G02*
X39750000Y-70175800I-50800J0D01*
G01*
X38990000Y-70175800D01*
G75*
G02*
X38939200Y-70125000I0J50800D01*
G01*
G37*
G36*
G01*
X40209200Y-70125000D02*
X40209200Y-67525000D01*
G75*
G02*
X40260000Y-67474200I50800J0D01*
G01*
X41020000Y-67474200D01*
G75*
G02*
X41070800Y-67525000I0J-50800D01*
G01*
X41070800Y-70125000D01*
G75*
G02*
X41020000Y-70175800I-50800J0D01*
G01*
X40260000Y-70175800D01*
G75*
G02*
X40209200Y-70125000I0J50800D01*
G01*
G37*
D12*
X36195000Y-66675000D03*
X40005000Y-66675000D03*
%TD*%
M02*
