%TF.GenerationSoftware,KiCad,Pcbnew,(5.1.7)-1*%
%TF.CreationDate,2021-02-21T14:58:14-08:00*%
%TF.ProjectId,swd-connection,7377642d-636f-46e6-9e65-6374696f6e2e,A*%
%TF.SameCoordinates,Original*%
%TF.FileFunction,Legend,Bot*%
%TF.FilePolarity,Positive*%
%FSLAX46Y46*%
G04 Gerber Fmt 4.6, Leading zero omitted, Abs format (unit mm)*
G04 Created by KiCad (PCBNEW (5.1.7)-1) date 2021-02-21 14:58:14*
%MOMM*%
%LPD*%
G01*
G04 APERTURE LIST*
%ADD10C,0.152400*%
%ADD11C,0.100000*%
G04 APERTURE END LIST*
D10*
X49203428Y-64419238D02*
X49058285Y-64467619D01*
X48816380Y-64467619D01*
X48719619Y-64419238D01*
X48671238Y-64370857D01*
X48622857Y-64274095D01*
X48622857Y-64177333D01*
X48671238Y-64080571D01*
X48719619Y-64032190D01*
X48816380Y-63983809D01*
X49009904Y-63935428D01*
X49106666Y-63887047D01*
X49155047Y-63838666D01*
X49203428Y-63741904D01*
X49203428Y-63645142D01*
X49155047Y-63548380D01*
X49106666Y-63500000D01*
X49009904Y-63451619D01*
X48768000Y-63451619D01*
X48622857Y-63500000D01*
X48284190Y-63451619D02*
X48042285Y-64467619D01*
X47848761Y-63741904D01*
X47655238Y-64467619D01*
X47413333Y-63451619D01*
X47026285Y-64467619D02*
X47026285Y-63451619D01*
X46784380Y-63451619D01*
X46639238Y-63500000D01*
X46542476Y-63596761D01*
X46494095Y-63693523D01*
X46445714Y-63887047D01*
X46445714Y-64032190D01*
X46494095Y-64225714D01*
X46542476Y-64322476D01*
X46639238Y-64419238D01*
X46784380Y-64467619D01*
X47026285Y-64467619D01*
X44655619Y-64370857D02*
X44704000Y-64419238D01*
X44849142Y-64467619D01*
X44945904Y-64467619D01*
X45091047Y-64419238D01*
X45187809Y-64322476D01*
X45236190Y-64225714D01*
X45284571Y-64032190D01*
X45284571Y-63887047D01*
X45236190Y-63693523D01*
X45187809Y-63596761D01*
X45091047Y-63500000D01*
X44945904Y-63451619D01*
X44849142Y-63451619D01*
X44704000Y-63500000D01*
X44655619Y-63548380D01*
X44026666Y-63451619D02*
X43833142Y-63451619D01*
X43736380Y-63500000D01*
X43639619Y-63596761D01*
X43591238Y-63790285D01*
X43591238Y-64128952D01*
X43639619Y-64322476D01*
X43736380Y-64419238D01*
X43833142Y-64467619D01*
X44026666Y-64467619D01*
X44123428Y-64419238D01*
X44220190Y-64322476D01*
X44268571Y-64128952D01*
X44268571Y-63790285D01*
X44220190Y-63596761D01*
X44123428Y-63500000D01*
X44026666Y-63451619D01*
X43155809Y-64467619D02*
X43155809Y-63451619D01*
X42575238Y-64467619D01*
X42575238Y-63451619D01*
X42091428Y-64467619D02*
X42091428Y-63451619D01*
X41510857Y-64467619D01*
X41510857Y-63451619D01*
X41027047Y-63935428D02*
X40688380Y-63935428D01*
X40543238Y-64467619D02*
X41027047Y-64467619D01*
X41027047Y-63451619D01*
X40543238Y-63451619D01*
X39527238Y-64370857D02*
X39575619Y-64419238D01*
X39720761Y-64467619D01*
X39817523Y-64467619D01*
X39962666Y-64419238D01*
X40059428Y-64322476D01*
X40107809Y-64225714D01*
X40156190Y-64032190D01*
X40156190Y-63887047D01*
X40107809Y-63693523D01*
X40059428Y-63596761D01*
X39962666Y-63500000D01*
X39817523Y-63451619D01*
X39720761Y-63451619D01*
X39575619Y-63500000D01*
X39527238Y-63548380D01*
X39236952Y-63451619D02*
X38656380Y-63451619D01*
X38946666Y-64467619D02*
X38946666Y-63451619D01*
X38317714Y-64467619D02*
X38317714Y-63451619D01*
X37640380Y-63451619D02*
X37446857Y-63451619D01*
X37350095Y-63500000D01*
X37253333Y-63596761D01*
X37204952Y-63790285D01*
X37204952Y-64128952D01*
X37253333Y-64322476D01*
X37350095Y-64419238D01*
X37446857Y-64467619D01*
X37640380Y-64467619D01*
X37737142Y-64419238D01*
X37833904Y-64322476D01*
X37882285Y-64128952D01*
X37882285Y-63790285D01*
X37833904Y-63596761D01*
X37737142Y-63500000D01*
X37640380Y-63451619D01*
X36769523Y-64467619D02*
X36769523Y-63451619D01*
X36188952Y-64467619D01*
X36188952Y-63451619D01*
X48647047Y-66245619D02*
X48985714Y-65761809D01*
X49227619Y-66245619D02*
X49227619Y-65229619D01*
X48840571Y-65229619D01*
X48743809Y-65278000D01*
X48695428Y-65326380D01*
X48647047Y-65423142D01*
X48647047Y-65568285D01*
X48695428Y-65665047D01*
X48743809Y-65713428D01*
X48840571Y-65761809D01*
X49227619Y-65761809D01*
X48211619Y-65713428D02*
X47872952Y-65713428D01*
X47727809Y-66245619D02*
X48211619Y-66245619D01*
X48211619Y-65229619D01*
X47727809Y-65229619D01*
X47437523Y-65229619D02*
X47098857Y-66245619D01*
X46760190Y-65229619D01*
X45695809Y-65955333D02*
X45212000Y-65955333D01*
X45792571Y-66245619D02*
X45453904Y-65229619D01*
X45115238Y-66245619D01*
D11*
G36*
X46101000Y-68580000D02*
G01*
X42672000Y-68580000D01*
X42672000Y-66802000D01*
X46101000Y-66802000D01*
X46101000Y-68580000D01*
G37*
X46101000Y-68580000D02*
X42672000Y-68580000D01*
X42672000Y-66802000D01*
X46101000Y-66802000D01*
X46101000Y-68580000D01*
D10*
X48586571Y-68150619D02*
X48925238Y-67666809D01*
X49167142Y-68150619D02*
X49167142Y-67134619D01*
X48780095Y-67134619D01*
X48683333Y-67183000D01*
X48634952Y-67231380D01*
X48586571Y-67328142D01*
X48586571Y-67473285D01*
X48634952Y-67570047D01*
X48683333Y-67618428D01*
X48780095Y-67666809D01*
X49167142Y-67666809D01*
X48151142Y-67618428D02*
X47812476Y-67618428D01*
X47667333Y-68150619D02*
X48151142Y-68150619D01*
X48151142Y-67134619D01*
X47667333Y-67134619D01*
X47377047Y-67134619D02*
X47038380Y-68150619D01*
X46699714Y-67134619D01*
M02*
